<?xml version="1.0" encoding="utf-8"?><svg viewBox="0 0 95.55 80" xmlns="http://www.w3.org/2000/svg" xmlns:xlink="http://www.w3.org/1999/xlink"><style>:root>svg{display:none}:root>svg:target{display:block}</style><svg viewBox="0 0 16.624 24" id="address" xmlns="http://www.w3.org/2000/svg"><defs><clipPath id="aaa"><path fill="#09f" d="M0 0h16.624v24H0z"/></clipPath></defs><g clip-path="url(#aaa)"><path d="M4 14.382L14.624 9.07 4 4.517zM3 0a1 1 0 011 1v1.341l11.412 4.891a2 2 0 01.107 3.627L4 16.618V22h1a1 1 0 010 2H1a1 1 0 010-2h1V1a1 1 0 011-1" fill="#09f" fill-rule="evenodd"/></g></svg><svg viewBox="0 0 10 6" id="arrow-down" xmlns="http://www.w3.org/2000/svg"><path d="M5 6a1 1 0 01-.707-.293l-4-4a1 1 0 010-1.414 1 1 0 011.414 0l4 4A1 1 0 015 6z" fill="#223861"/><path d="M5 6a1 1 0 01-.707-.293 1 1 0 010-1.414l4-4a1 1 0 011.414 0 1 1 0 010 1.414l-4 4A1 1 0 015 6z" fill="#223861"/></svg><svg viewBox="0 0 10 6" id="arrow-down-white" xmlns="http://www.w3.org/2000/svg"><path d="M5 6a1 1 0 01-.707-.293l-4-4a1 1 0 010-1.414 1 1 0 011.414 0l4 4A1 1 0 015 6z" fill="#fff"/><path d="M5 6a1 1 0 01-.707-.293 1 1 0 010-1.414l4-4a1 1 0 011.414 0 1 1 0 010 1.414l-4 4A1 1 0 015 6z" fill="#fff"/></svg><svg viewBox="0 0 15.543 13.639" id="arrow-r" xmlns="http://www.w3.org/2000/svg"><g><path d="M14.377 7.819H1a1 1 0 01-1-1 1 1 0 011-1h13.377a1 1 0 011 1 1 1 0 01-1 1z"/><path d="M14.543 7.819a1 1 0 01-.707-.293L8.017 1.707a1 1 0 010-1.414 1 1 0 011.414 0l5.819 5.819a1 1 0 01-.707 1.707z"/><path d="M8.724 13.638a1 1 0 01-.707-.293 1 1 0 010-1.414l5.819-5.819a1 1 0 011.414 0 1 1 0 010 1.414l-5.819 5.819a1 1 0 01-.707.293z"/></g></svg><svg viewBox="0 0 24 24" id="at-mail" xmlns="http://www.w3.org/2000/svg"><defs><clipPath id="aea"><path fill="#fe617b" d="M0 0h24v24H0z"/></clipPath></defs><g clip-path="url(#aea)"><path d="M16 12a4 4 0 10-4 4 4 4 0 004-4M12 2a10 10 0 000 20 1 1 0 010 2 12 12 0 1112-12v2a4 4 0 01-7.49 1.957A6 6 0 1116 7.528V7a1 1 0 012 0v7a2 2 0 004 0v-2A10 10 0 0012 2" fill="#fe617b" fill-rule="evenodd"/></g></svg><svg viewBox="0 0 72.854 80" id="bell" xmlns="http://www.w3.org/2000/svg"><defs><clipPath id="afa"><path fill="#77c159" d="M0 0h72.854v80H0z"/></clipPath></defs><g clip-path="url(#afa)"><path d="M10.727 7.319a2.553 2.553 0 01.507 3.574 31.331 31.331 0 00-6.133 15.742 2.554 2.554 0 01-5.083-.5A36.408 36.408 0 017.153 7.83a2.553 2.553 0 013.574-.511m51.4 0a2.552 2.552 0 013.574.511 36.378 36.378 0 017.139 18.3 2.554 2.554 0 01-5.083.5 31.331 31.331 0 00-6.138-15.741 2.553 2.553 0 01.507-3.574M13.519 61.277a4.254 4.254 0 01-3.268-6.977l1.4-1.685a29.786 29.786 0 006.9-19.067v-3.761a17.872 17.872 0 0135.745 0v3.758a29.786 29.786 0 006.9 19.067l1.4 1.685a4.254 4.254 0 01-3.268 6.979zm15.251 5.106v.851a7.66 7.66 0 0015.319 0v-.851zM36.429 0a2.554 2.554 0 012.553 2.553v4.395a22.984 22.984 0 0120.426 22.839v3.758a24.692 24.692 0 005.719 15.8l1.406 1.685a9.361 9.361 0 01-7.193 15.353H49.195v.851a12.766 12.766 0 01-25.532 0v-.851H13.519A9.362 9.362 0 016.325 51.03l1.406-1.685a24.692 24.692 0 005.719-15.8v-3.758A22.984 22.984 0 0133.876 6.948V2.553A2.554 2.554 0 0136.429 0" fill="#77c159" fill-rule="evenodd"/></g></svg><svg viewBox="0 0 22 22" id="calendar" xmlns="http://www.w3.org/2000/svg"><defs><clipPath id="aga"><path fill="#09f" d="M0 0h22v22H0z"/></clipPath></defs><g clip-path="url(#aga)"><path d="M20 9H2v10a1 1 0 001 1h16a1 1 0 001-1zM3 4a1 1 0 00-1 1v2h18V5a1 1 0 00-1-1zm3-4a1 1 0 011 1v1h8V1a1 1 0 012 0v1h2a3 3 0 013 3v14a3 3 0 01-3 3H3a3 3 0 01-3-3V5a3 3 0 013-3h2V1a1 1 0 011-1" fill="#09f" fill-rule="evenodd"/></g></svg><svg viewBox="0 0 22 22" id="certificate" xmlns="http://www.w3.org/2000/svg"><defs><clipPath id="aha"><path d="M0 0h22v22H0z"/></clipPath></defs><g clip-path="url(#aha)"><path d="M18.342.221H4.117A1.972 1.972 0 002.148 2.19v16.166a1.971 1.971 0 001.969 1.969h4.681a.907.907 0 000-1.814H4.117a.162.162 0 01-.154-.154V2.19a.157.157 0 01.154-.154h14.225a.149.149 0 01.154.154v16.166a.155.155 0 01-.119.148.907.907 0 10.292 1.791 1.978 1.978 0 001.641-1.939V2.19A1.972 1.972 0 0018.342.221"/><path d="M6.946 5.219h8.416a.907.907 0 000-1.814H6.946a.907.907 0 100 1.814M16.269 8.214a.907.907 0 00-.907-.907H6.946a.907.907 0 000 1.814h8.416a.907.907 0 00.907-.907M8.567 11.21H6.946a.907.907 0 100 1.814h1.621a.907.907 0 100-1.814M8.567 15.112H6.946a.907.907 0 100 1.814h1.621a.907.907 0 100-1.814M17.692 13.972a3.8 3.8 0 10-6.711 2.421.9.9 0 00-.052.258v4.092a.907.907 0 001.47.711l1.443-.8 1.564.822a.907.907 0 001.447-.729v-4.1a.855.855 0 00-.052-.255 3.768 3.768 0 00.89-2.415m-3.8-1.988a1.988 1.988 0 11-1.989 1.988 1.99 1.99 0 011.989-1.988m.474 6.8a.905.905 0 00-1.1.018l-.517.408v-1.636a3.444 3.444 0 002.3 0v1.7z"/></g></svg><svg viewBox="0 0 11 8" id="check" xmlns="http://www.w3.org/2000/svg"><defs><clipPath id="aia"><path fill="#fff" d="M0 0h11v8H0z"/></clipPath></defs><g clip-path="url(#aia)"><path d="M10.707.293a1 1 0 010 1.414l-6 6a1 1 0 01-1.414 0l-3-3a1 1 0 011.414-1.414L4 5.586 9.293.293a1 1 0 011.414 0" fill="#fff" fill-rule="evenodd"/></g></svg><svg viewBox="0 0 11.898 9.079" id="check-green" xmlns="http://www.w3.org/2000/svg"><path d="M3.831 6.729a2.726 2.726 0 01.206-.278q3.045-3.05 6.094-6.1a1 1 0 011.572 1.234 2.149 2.149 0 01-.219.243L4.661 8.653a1.032 1.032 0 01-1.663 0Q1.656 7.312.315 5.969A.975.975 0 01.042 4.96a.943.943 0 01.748-.7.991.991 0 01.957.308q.942.946 1.887 1.89a2.829 2.829 0 01.2.26" fill="#33ab4b"/></svg><svg viewBox="0 0 24.25 24.25" id="circle-option" xmlns="http://www.w3.org/2000/svg"><defs><clipPath id="aka"><path d="M0 0h24.25v24.25H0z"/></clipPath></defs><g clip-path="url(#aka)"><path d="M12.125 20.515A8.916 8.916 0 017.644 3.893a1.167 1.167 0 011.164 2.022 6.586 6.586 0 00-3.266 5.687 6.59 6.59 0 006.583 6.582 6.586 6.586 0 004.657-11.239 6.5 6.5 0 00-1.341-1.03 1.165 1.165 0 011.165-2.017 8.917 8.917 0 011.823 14.007 8.834 8.834 0 01-6.304 2.61"/></g></svg><svg viewBox="0 0 6.875 6.875" id="close" xmlns="http://www.w3.org/2000/svg"><defs><clipPath id="ala"><path d="M0 0h6.875v6.875H0z"/></clipPath></defs><g clip-path="url(#ala)"><path d="M.2.2a.687.687 0 01.972 0l2.265 2.265L5.7.2a.687.687 0 01.972.972L4.41 3.437 6.673 5.7a.687.687 0 01-.972.972L3.437 4.41 1.173 6.673A.688.688 0 01.2 5.7l2.265-2.263L.2 1.173A.687.687 0 01.2.2"/></g></svg><svg viewBox="0 0 10 10" id="close-static" xmlns="http://www.w3.org/2000/svg"><defs><clipPath id="ama"><path fill="#fff" d="M0 0h10v10H0z"/></clipPath></defs><g clip-path="url(#ama)"><path d="M.293.293a1 1 0 011.414 0L5 3.586 8.293.293a1 1 0 011.414 1.414L6.414 5l3.293 3.293a1 1 0 01-1.414 1.414L5 6.414 1.707 9.707A1 1 0 01.293 8.293L3.586 5 .293 1.707a1 1 0 010-1.414" fill="#fff" fill-rule="evenodd"/></g></svg><svg viewBox="0 0 32 32" id="facebook" xmlns="http://www.w3.org/2000/svg"><defs><clipPath id="ana"><path transform="translate(-.422 .156)" fill="#294882" d="M0 0h8v14H0z"/></clipPath></defs><g transform="translate(-55 -6771)"><circle cx="16" cy="16" r="16" transform="translate(55 6771)" fill="none"/><g transform="translate(67.422 6779.843)" clip-path="url(#ana)"><path d="M6.586 7.776l.377-2.468H4.597v-1.6a1.233 1.233 0 011.391-1.333h1.075v-2.1A13.124 13.124 0 005.154.108a3.012 3.012 0 00-3.224 3.32v1.88H-.237v2.468H1.93v5.964a8.626 8.626 0 002.667 0V7.776z" fill="#294882"/></g></g></svg><svg viewBox="0 0 23.741 18" id="folder" xmlns="http://www.w3.org/2000/svg"><defs><clipPath id="aoa"><path fill="#09f" d="M0 0h23.741v18H0z"/></clipPath></defs><g clip-path="url(#aoa)"><path d="M3 9h-.066a1 1 0 00-.895 1.266l1.389 5a1 1 0 00.963.734H19.35a1 1 0 00.963-.732l1.389-5A1 1 0 0020.806 9h-.066zm18.87-1.78a3 3 0 011.759 3.58l-1.389 5a3 3 0 01-2.89 2.2H4.391A3 3 0 011.5 15.8l-1.389-5a3 3 0 011.76-3.58V3a3 3 0 013-3h4.171a3 3 0 012.121.879L13.284 3h5.586a3 3 0 013 3zM4.871 2a1 1 0 00-1 1v4h16V6a1 1 0 00-1-1h-6a1 1 0 01-.707-.293L9.75 2.293A1 1 0 009.042 2z" fill="#09f" fill-rule="evenodd"/></g></svg><svg viewBox="0 0 8.304 11" id="in-progress" xmlns="http://www.w3.org/2000/svg"><defs><clipPath id="apa"><path fill="#fff" d="M0 0h8.304v11H0z"/></clipPath></defs><g clip-path="url(#apa)"><path d="M7.609 4.054L2.946.392A1.821 1.821 0 000 1.824v7.352a1.819 1.819 0 002.946 1.433l4.663-3.663a1.851 1.851 0 000-2.892m-.838 1.067l-.261.426-4.732 3.629.022-7.39a.044.044 0 01.02-.006.042.042 0 01.025.01l4.664 3.664z" fill="#fff"/></g></svg><svg viewBox="0 0 22 22" id="key" xmlns="http://www.w3.org/2000/svg"><defs><clipPath id="aqa"><path d="M0 0h22v22H0z"/></clipPath></defs><g clip-path="url(#aqa)"><path d="M16.707 5.293a1 1 0 010 1.414l-1 1a1 1 0 01-1.414-1.414l1-1a1 1 0 011.414 0M7 7.5a7.5 7.5 0 117.5 7.5 7.586 7.586 0 01-1.017-.068L12 16.414a2 2 0 01-1.414.586H8v1.172a3 3 0 01-.879 2.121L6 21.414A2 2 0 014.586 22H2a2 2 0 01-2-2v-2.586A2 2 0 01.586 16l6.645-6.645A7.524 7.524 0 017 7.5M14.5 2a5.5 5.5 0 00-5.195 7.311l.206.592L2 17.414V20h2.586l1.121-1.121A1 1 0 006 18.172V17a2 2 0 012-2h2.586l2.233-2.233.531.113a5.573 5.573 0 001.15.12 5.5 5.5 0 000-11" fill-rule="evenodd"/></g></svg><svg viewBox="0 0 32 32" id="linkedin" xmlns="http://www.w3.org/2000/svg"><defs><clipPath id="ara"><path transform="translate(.082 .082)" fill="#294882" d="M0 0h16v16H0z"/></clipPath></defs><g transform="translate(-139 -6771)"><circle cx="16" cy="16" r="16" transform="translate(139 6771)" fill="none"/><g clip-path="url(#ara)" transform="translate(146.918 6778.918)"><path d="M4.674 3.368a1.347 1.347 0 11-1.346-1.347 1.347 1.347 0 011.346 1.347m.04 2.344H2.02v8.432h2.694zm4.257 0H6.29v8.432h2.65V9.721c0-2.465 3.213-2.694 3.213 0v4.425h2.66V8.803c0-4.156-4.755-4-5.873-1.96z" fill="#294882"/></g></g></svg><svg viewBox="0 0 52.766 80" id="lock" xmlns="http://www.w3.org/2000/svg"><defs><clipPath id="asa"><path fill="#77c159" d="M0 0h52.766v80H0z"/></clipPath></defs><g clip-path="url(#asa)"><path d="M26.383 47.66a2.554 2.554 0 012.553 2.553v6.809a2.553 2.553 0 11-5.106 0v-6.809a2.554 2.554 0 012.553-2.553m0-15.319a21.272 21.272 0 1012.157 3.812 21.165 21.165 0 00-12.157-3.813m-11.064-2.679a26.429 26.429 0 0122.128 0V16.17a11.064 11.064 0 10-22.128 0zM10.213 16.17a16.17 16.17 0 1132.34 0v16.6a26.383 26.383 0 11-32.34 0z" fill="#77c159" fill-rule="evenodd"/></g></svg><svg viewBox="0 0 24 16" id="mail" xmlns="http://www.w3.org/2000/svg"><defs><clipPath id="ata"><path d="M0 0h24v16H0z"/></clipPath></defs><g clip-path="url(#ata)"><path d="M22 3.685l-8.563 4.671a3 3 0 01-2.874 0L2 3.685V13a1 1 0 001 1h18a1 1 0 001-1zM3.088 2l8.433 4.6a1 1 0 00.958 0L20.912 2zM.311 1.669A3 3 0 013 0h18a3 3 0 013 3v10a3 3 0 01-3 3H3a3 3 0 01-3-3V3a3 3 0 01.311-1.331" fill-rule="evenodd"/></g></svg><svg viewBox="0 0 21.911 21.911" id="phone" xmlns="http://www.w3.org/2000/svg"><defs><clipPath id="aua"><path fill="#09f" d="M0 0h21.911v21.911H0z"/></clipPath></defs><g clip-path="url(#aua)"><path d="M.014 3.1A2.855 2.855 0 012.911 0h3.558a3 3 0 012.847 2.051l1.153 3.46a3 3 0 01-.725 3.07l-.557.557a11.86 11.86 0 003.6 3.576l.547-.547a3 3 0 013.07-.725L19.86 12.6a3 3 0 012.051 2.846V19a2.855 2.855 0 01-3.1 2.9A21.008 21.008 0 01.014 3.1M2.911 2a.856.856 0 00-.906.9 19.006 19.006 0 0017.007 17.006.856.856 0 00.9-.906v-3.558a1 1 0 00-.684-.949l-3.46-1.153a1 1 0 00-1.023.241l-.554.554a1.98 1.98 0 01-2.518.242 13.853 13.853 0 01-4.167-4.156 1.974 1.974 0 01.259-2.488l.566-.566a1 1 0 00.241-1.023l-1.154-3.46A1 1 0 006.469 2z" fill="#09f" fill-rule="evenodd"/></g></svg><svg viewBox="0 0 53 40" id="quotes" xmlns="http://www.w3.org/2000/svg"><defs><clipPath id="ava"><path fill="#fe617b" d="M0 0h53v40H0z"/></clipPath></defs><g clip-path="url(#ava)"><path d="M33.333 17.778v15.555a2.223 2.223 0 002.222 2.222h11.112a2.222 2.222 0 002.222-2.222V20a2.222 2.222 0 00-2.222-2.222zm7.9-17.4a2.22 2.22 0 01.616 3.082l-6.584 9.878h11.4A6.666 6.666 0 0153.333 20v13.333A6.666 6.666 0 0146.667 40H35.555a6.666 6.666 0 01-6.667-6.667V16.9a6.661 6.661 0 01.313-2.02 6.761 6.761 0 01.807-1.68L38.151.989a2.225 2.225 0 013.082-.616M4.444 17.778v15.555a2.223 2.223 0 002.222 2.222h11.112A2.222 2.222 0 0020 33.333V20a2.222 2.222 0 00-2.222-2.222zm7.9-17.4a2.22 2.22 0 01.616 3.082l-6.584 9.873h11.4A6.666 6.666 0 0124.444 20v13.333A6.666 6.666 0 0117.778 40H6.667A6.666 6.666 0 010 33.333V16.9a6.661 6.661 0 01.313-2.02 6.761 6.761 0 01.807-1.68L9.262.989a2.224 2.224 0 013.082-.616" fill="#fe617b" fill-rule="evenodd"/></g></svg><svg viewBox="0 0 48 48" id="sad-smile" xmlns="http://www.w3.org/2000/svg"><defs><clipPath id="awa"><path fill="none" d="M0 0h48v48H0z"/></clipPath><clipPath id="awb"><path fill="none" d="M0 0h33.952v21.892H0z"/></clipPath></defs><g clip-path="url(#awa)"><path d="M24 1.714A22.286 22.286 0 111.714 24 22.286 22.286 0 0124 1.714" fill="#fff"/><path d="M24 48a24 24 0 1124-24 24 24 0 01-24 24m0-44.571A20.571 20.571 0 1044.571 24 20.571 20.571 0 0024 3.429" fill="#ffb400"/><path d="M33.03 13.192a8.156 8.156 0 00-3.88.041.583.583 0 01-.35.026.322.322 0 01-.131-.308 1.256 1.256 0 01.218-.507 2.124 2.124 0 01.623-.512 7.705 7.705 0 011.867-.578 4.92 4.92 0 015.476 3.221.9.9 0 01-.042.815c-.183.372-.291.2-.4.106-.567-.474-1.11-1.014-1.7-1.421a14.366 14.366 0 00-1.681-.882M31.216 15.638a3.286 3.286 0 11-3.284 3.286 3.286 3.286 0 013.286-3.286M14.971 13.192a8.155 8.155 0 013.88.041.584.584 0 00.351.026.323.323 0 00.13-.308 1.252 1.252 0 00-.218-.507 2.124 2.124 0 00-.623-.512 7.705 7.705 0 00-1.867-.578 4.922 4.922 0 00-5.474 3.22.9.9 0 00.042.815c.183.372.291.2.4.106.567-.474 1.11-1.014 1.7-1.421a14.317 14.317 0 011.681-.882M16.785 15.638a3.286 3.286 0 11-3.286 3.286 3.286 3.286 0 013.286-3.286" fill="#ffb400"/><g clip-path="url(#awb)" transform="translate(10.541 22.68)" opacity=".2"><path d="M10.809 19.32A25.366 25.366 0 01-.004 16.938 20.565 20.565 0 0033.952 1.32c0-.444-.019-.883-.047-1.32-.728 10.778-10.787 19.32-23.1 19.32" fill="#ffb400"/></g><path d="M18.143 31.581c2.6-4.443 9.92-4.448 12.583 0l-.084.265a26.78 26.78 0 00-3.083-.6 24.03 24.03 0 00-7.8.237 15.1 15.1 0 00-1.522.36z" fill="#ffb400"/></g></svg><svg viewBox="0 0 60 80" id="save" xmlns="http://www.w3.org/2000/svg"><defs><clipPath id="axa"><path fill="#77c159" d="M0 0h60v80H0z"/></clipPath></defs><g clip-path="url(#axa)"><path d="M41.838 25.299a1.78 1.78 0 010 2.507L31.249 38.425a1.766 1.766 0 01-2.5 0l-7.059-7.081a1.77 1.77 0 112.5-2.507L30 34.669l9.339-9.37a1.766 1.766 0 012.5 0M0 8.85A8.836 8.836 0 018.824-.001h42.352A8.836 8.836 0 0160 8.85v62.284a8.821 8.821 0 01-14.633 6.659l-11.88-10.426a5.283 5.283 0 00-6.974 0l-11.88 10.426A8.821 8.821 0 010 71.134zm8.824-5.311a5.3 5.3 0 00-5.294 5.31v62.285a5.292 5.292 0 008.781 3.993l11.88-10.428a8.8 8.8 0 0111.619 0l11.88 10.426a5.292 5.292 0 008.781-3.993V8.85a5.3 5.3 0 00-5.294-5.31z" fill="#77c159" fill-rule="evenodd"/></g></svg><svg viewBox="0 0 48 48" id="smile" xmlns="http://www.w3.org/2000/svg"><g transform="translate(-16657.557 17897)"><circle cx="22.286" cy="22.286" r="22.286" transform="translate(16659.271 -17895.285)" fill="#fff"/><path d="M16681.557-17849a24 24 0 1124-24 24.027 24.027 0 01-24 24zm0-44.571a20.571 20.571 0 1020.571 20.571 20.595 20.595 0 00-20.571-20.571z" fill="#77c159"/><g fill="#77c159"><path d="M16681.619-17863.186a25.3 25.3 0 01-11.589-2.814 11.818 11.818 0 01-1.734-1.243c-.148-.12-.163-.405-.239-.615.226-.077.477-.257.675-.211a10.814 10.814 0 011.633.539 29.428 29.428 0 0011.9 2.271 30.2 30.2 0 0010.8-2.387 8.134 8.134 0 011.415-.437.444.444 0 01.412.776 6.311 6.311 0 01-1.054.864 19.8 19.8 0 01-7.669 2.768c-1.509.243-3.032.331-4.55.489zM16670.128-17878.584a4.288 4.288 0 014.186 2.928 2.643 2.643 0 01.1 1.168.93.93 0 01-.53.655c-.215.045-.555-.2-.74-.4a4.833 4.833 0 01-.435-.84 2.938 2.938 0 00-5.169.008 6.745 6.745 0 01-.469.891c-.149.185-.461.4-.641.358a.877.877 0 01-.568-.558 2.923 2.923 0 01.08-1.284 4.283 4.283 0 014.186-2.926zM16693.024-17878.588a4.29 4.29 0 014.073 2.666 3.466 3.466 0 01.188 1.447.875.875 0 01-.537.641c-.218.04-.548-.209-.736-.415a4.31 4.31 0 01-.4-.791 2.942 2.942 0 00-5.2-.018 6.422 6.422 0 01-.473.889c-.15.183-.467.394-.646.347a.855.855 0 01-.557-.566 3.8 3.8 0 01.171-1.509 4.3 4.3 0 014.117-2.691z"/></g><path d="M16678.854-17854.999a25.365 25.365 0 01-10.809-2.382 20.565 20.565 0 0033.952-15.618c0-.444-.019-.883-.047-1.32-.728 10.778-10.788 19.32-23.096 19.32z" fill="#77c159" opacity=".2"/><path d="M16681.746-17861.603a29.128 29.128 0 007.354-1.45 1.992 1.992 0 01.65-.152.537.537 0 01.437.24.687.687 0 01-.106.553 2.882 2.882 0 01-.872.705 20.677 20.677 0 01-3.2 1.22 19.841 19.841 0 01-10.551-.151 9.967 9.967 0 01-1.823-.866.645.645 0 01-.417-.777c.12-.413.433-.288.69-.243 1.367.237 2.729.544 4.1.709 1.242.148 2.493.148 3.738.212z" fill="#77c159" opacity=".2"/></g></svg><svg viewBox="0 0 22 22" id="square-cvv" xmlns="http://www.w3.org/2000/svg"><g transform="translate(-577 -555)" fill="#77869a"><rect width="6" height="6" rx="2" transform="translate(577 555)"/><rect width="6" height="6" rx="2" transform="translate(585 555)"/><rect width="6" height="6" rx="2" transform="translate(593 555)"/><rect width="6" height="6" rx="2" transform="translate(577 563)"/><rect width="6" height="6" rx="2" transform="translate(585 563)"/><rect width="6" height="6" rx="2" transform="translate(593 563)"/><rect width="6" height="6" rx="2" transform="translate(577 571)"/><rect width="6" height="6" rx="2" transform="translate(585 571)"/><rect width="6" height="6" rx="2" transform="translate(593 571)"/></g></svg><svg viewBox="0 0 16 15.986" id="star-gray" xmlns="http://www.w3.org/2000/svg"><defs><clipPath id="baa"><path d="M0 0h16v15.986H0z"/></clipPath></defs><g clip-path="url(#baa)"><path d="M8.73.489l1.835 3.989a.843.843 0 00.558.479l4.148.638a.722.722 0 01.479 1.276l-3.031 3.111a1.114 1.114 0 00-.239.718l.718 4.308a.8.8 0 01-1.117.877l-3.75-2.074a.6.6 0 00-.718 0l-3.749 2.074a.77.77 0 01-1.117-.877l.718-4.308a.8.8 0 00-.239-.718L.195 6.871a.829.829 0 01.478-1.356l4.148-.638A.684.684 0 005.38 4.4L7.215.409a.865.865 0 011.515.08"/></g></svg><svg viewBox="0 0 16 15.986" id="star-yellow" xmlns="http://www.w3.org/2000/svg"><defs><clipPath id="bba"><path fill="#ffc400" d="M0 0h16v15.986H0z"/></clipPath></defs><g clip-path="url(#bba)"><path d="M8.73.489l1.835 3.989a.843.843 0 00.558.479l4.148.638a.722.722 0 01.479 1.276l-3.031 3.111a1.114 1.114 0 00-.239.718l.718 4.308a.8.8 0 01-1.117.877l-3.75-2.074a.6.6 0 00-.718 0l-3.749 2.074a.77.77 0 01-1.117-.877l.718-4.308a.8.8 0 00-.239-.718L.195 6.871a.829.829 0 01.478-1.356l4.148-.638A.684.684 0 005.38 4.4L7.215.409a.865.865 0 011.515.08" fill="#ffc400"/></g></svg><svg viewBox="0 0 32 32" id="telegram" xmlns="http://www.w3.org/2000/svg"><defs><clipPath id="bca"><path fill="#294882" d="M0 0h14.505v12.165H0z"/></clipPath></defs><g transform="translate(-99 -6771)"><circle cx="16" cy="16" r="16" transform="translate(99 6771)" fill="none"/><g clip-path="url(#bca)" transform="translate(107.747 6780.917)"><path d="M14.464 1.107L12.275 11.43c-.165.729-.6.91-1.208.567L7.732 9.539l-1.61 1.548a.838.838 0 01-.67.327l.24-3.4 6.182-5.586c.269-.24-.058-.372-.418-.133L3.814 7.111l-3.29-1.03c-.716-.224-.724-.716.149-1.059L13.541.064c.6-.223 1.117.133.923 1.043" fill="#294882"/></g></g></svg><svg viewBox="0 0 24.25 24.25" id="test" xmlns="http://www.w3.org/2000/svg"><defs><clipPath id="bda"><path fill="#09f" d="M0 0h24.25v24.25H0z"/></clipPath></defs><g clip-path="url(#bda)" fill="#09f"><path d="M4.211 6.838a1 1 0 00.726.312h.017a1 1 0 00.707-.293l3.3-3.3a1 1 0 10-1.416-1.413L4.964 4.725 3.882 3.586a1 1 0 00-1.451 1.377zM12.221 5.84h9.063a1 1 0 000-2h-9.063a1 1 0 000 2M4.211 13.92a1 1 0 00.726.312h.017a1 1 0 00.707-.293l3.3-3.3a1 1 0 00-1.416-1.413l-2.581 2.582-1.082-1.14a1 1 0 10-1.451 1.377zM12.221 13.4h9.063a1 1 0 000-2h-9.063a1 1 0 000 2M7.579 17.53a1 1 0 00-1.414 0l-.942.942-.943-.942a1 1 0 00-1.414 1.414l.942.942-.942.942a1 1 0 101.414 1.414l.943-.942.942.942a1 1 0 001.414-1.414l-.942-.942.942-.942a1 1 0 000-1.414M12.221 21.3h9.063a1 1 0 000-2h-9.063a1 1 0 100 2"/></g></svg><svg viewBox="0 0 12 12" id="time" xmlns="http://www.w3.org/2000/svg"><defs><clipPath id="bea"><path fill="#77869a" d="M0 0h12v12H0z"/></clipPath></defs><g clip-path="url(#bea)"><path d="M6 3a.5.5 0 01.5.5v2.26l2.313 1.85a.5.5 0 11-.625.781l-2.5-2A.5.5 0 015.5 6V3.5A.5.5 0 016 3M0 6a6 6 0 116 6 6 6 0 01-6-6m6-5a5 5 0 105 5 5 5 0 00-5-5" fill="#77869a" fill-rule="evenodd"/></g></svg><svg viewBox="0 0 22 26" id="user" xmlns="http://www.w3.org/2000/svg"><defs><clipPath id="bfa"><path d="M0 0h22v26H0z"/></clipPath></defs><g clip-path="url(#bfa)"><path d="M18.74 13.18a1 1 0 00-1.41 1.42A9 9 0 0120 21c0 1.22-3.51 3-9 3s-9-1.78-9-3a9 9 0 012.63-6.37 1 1 0 10-1.41-1.41A10.92 10.92 0 000 21c0 3.25 5.67 5 11 5s11-1.75 11-5a10.938 10.938 0 00-3.26-7.82"/><path d="M11 14a7 7 0 10-7-7 7 7 0 007 7m0-12a5 5 0 11-5 5 5 5 0 015-5"/></g></svg><svg viewBox="0 0 80 80" id="user-icon" xmlns="http://www.w3.org/2000/svg"><defs><clipPath id="bga"><path fill="#77c159" d="M0 0h80v80H0z"/></clipPath></defs><g clip-path="url(#bga)"><path d="M23.769 33.191A16.232 16.232 0 1140 49.362a16.2 16.2 0 01-16.231-16.17M40 22.128a11.064 11.064 0 1011.125 11.063A11.094 11.094 0 0040 22.128M0 40a40 40 0 1114.652 30.945A40 40 0 010 40m60.94 27.915a11.068 11.068 0 00-10.727-8.34H29.787a11.068 11.068 0 00-10.727 8.34 34.9 34.9 0 0041.879 0M40 5.106a34.892 34.892 0 00-25.076 59.156 16.167 16.167 0 0114.863-9.794h20.426a16.17 16.17 0 0114.863 9.794A34.892 34.892 0 0040 5.106" fill="#77c159" fill-rule="evenodd"/></g></svg><svg viewBox="0 0 95.55 66.967" id="we-write" xmlns="http://www.w3.org/2000/svg"><defs><clipPath id="bha"><path fill="#77c159" d="M0 0h95.55v66.967H0z"/></clipPath></defs><g clip-path="url(#bha)" fill="#77c159"><path d="M52.971 66.951c-9.058 0-18.117.043-27.175-.017a9.784 9.784 0 01-10-10.267c.069-1.609.48-3.084 2.387-3.007 1.757.071 2.1 1.4 2.059 3.007a5.374 5.374 0 005.66 5.865q27.07.071 54.14 0a6.863 6.863 0 007.115-6.544c.89-9.149 1.614-18.315 2.407-27.474.5-5.759.95-11.522 1.51-17.276.4-4.082-1.861-6.7-6-6.707q-26.652-.014-53.3 0c-4.178 0-6.8 2.182-7.548 6.29-.279 1.532-.829 2.79-2.645 2.516-1.973-.3-2.021-1.838-1.8-3.382A11.519 11.519 0 0131.053.067q27.278-.136 54.558 0a9.69 9.69 0 019.9 10.765q-1.866 22.908-3.891 45.8a11.4 11.4 0 01-11.478 10.306c-9.058.054-18.116.014-27.174.013"/><path d="M55.536 38.004a10.135 10.135 0 01-7.575-3.448q-9.141-10.605-18.262-21.22c-.862-1-1.585-2.013-.687-3.346.931-1.382 2.6-1.245 4 .376q7.585 8.77 15.136 17.57 1.295 1.5 2.585 3.012c2.827 3.322 6.424 3.52 9.611.445q10.6-10.228 21.15-20.508c2.043-1.983 3.281-2.327 4.407-1.217 1.194 1.177.873 2.322-1.22 4.352Q74.11 24.274 63.544 34.537a11.423 11.423 0 01-8.008 3.466M15.635 31.296c2.787 0 5.574.015 8.361-.006 1.574-.012 2.649.682 2.645 2.278 0 1.494-1.082 2.2-2.525 2.209q-8.569.03-17.14 0c-1.437 0-2.528-.691-2.54-2.193-.013-1.6 1.053-2.3 2.628-2.293 2.857.018 5.713.005 8.57 0M21.172 17.913c1.671 0 3.342.01 5.012 0 1.541-.013 2.667.61 2.674 2.239.014 1.653-1.186 2.238-2.686 2.246a591.61 591.61 0 01-10.233-.007c-1.5-.018-2.62-.661-2.548-2.359.067-1.563 1.123-2.116 2.559-2.118h5.221M16.767 44.682c1.741 0 3.482-.018 5.222.008a2.229 2.229 0 11.06 4.45c-3.619.067-7.241.06-10.86 0a2.106 2.106 0 01-2.3-2.195 2.165 2.165 0 012.449-2.256c1.81-.023 3.62-.005 5.431 0M4.448 17.919c.7 0 1.394-.035 2.087.009 1.379.088 2.436.889 2.189 2.205A3.285 3.285 0 016.7 22.27a15 15 0 01-4.563.082A2.059 2.059 0 010 20.031a2.118 2.118 0 012.356-2.109c.695-.025 1.391 0 2.087 0"/></g></svg></svg>