<svg xmlns="http://www.w3.org/2000/svg" width="15.543" height="13.639" viewBox="0 0 15.543 13.639"><g transform="translate(-754.5 -5539.017)"><path d="M13.377,1H0A1,1,0,0,1-1,0,1,1,0,0,1,0-1H13.377a1,1,0,0,1,1,1A1,1,0,0,1,13.377,1Z" transform="translate(755.5 5545.836)" fill=""/><path d="M5.819,6.819a1,1,0,0,1-.707-.293L-.707.707a1,1,0,0,1,0-1.414,1,1,0,0,1,1.414,0L6.526,5.112a1,1,0,0,1-.707,1.707Z" transform="translate(763.224 5540.017)" fill=""/><path d="M0,6.819a1,1,0,0,1-.707-.293,1,1,0,0,1,0-1.414L5.112-.707a1,1,0,0,1,1.414,0,1,1,0,0,1,0,1.414L.707,6.526A1,1,0,0,1,0,6.819Z" transform="translate(763.224 5545.836)" fill=""/></g></svg>