<svg xmlns="http://www.w3.org/2000/svg" xmlns:xlink="http://www.w3.org/1999/xlink" width="72.854" height="80" viewBox="0 0 72.854 80"><defs><clipPath id="a"><rect width="72.854" height="80" fill="#77c159"/></clipPath></defs><g clip-path="url(#a)"><path d="M10.726,7.319a2.553,2.553,0,0,1,.507,3.574A31.331,31.331,0,0,0,5.1,26.635a2.554,2.554,0,0,1-5.083-.5A36.408,36.408,0,0,1,7.152,7.83a2.553,2.553,0,0,1,3.574-.511m51.4,0A2.552,2.552,0,0,1,65.7,7.83a36.378,36.378,0,0,1,7.139,18.3,2.554,2.554,0,0,1-5.083.5,31.331,31.331,0,0,0-6.138-15.741,2.553,2.553,0,0,1,.507-3.574M13.518,61.277A4.254,4.254,0,0,1,10.25,54.3l1.4-1.685a29.786,29.786,0,0,0,6.9-19.067V29.787a17.872,17.872,0,0,1,35.745,0v3.758a29.786,29.786,0,0,0,6.9,19.067l1.4,1.685a4.254,4.254,0,0,1-3.268,6.979Zm15.251,5.106v.851a7.66,7.66,0,0,0,15.319,0v-.851ZM36.428,0a2.554,2.554,0,0,1,2.553,2.553V6.948A22.984,22.984,0,0,1,59.407,29.787v3.758a24.692,24.692,0,0,0,5.719,15.8l1.406,1.685a9.361,9.361,0,0,1-7.193,15.353H49.194v.851a12.766,12.766,0,0,1-25.532,0v-.851H13.518A9.362,9.362,0,0,1,6.324,51.03L7.73,49.345a24.692,24.692,0,0,0,5.719-15.8V29.787A22.984,22.984,0,0,1,33.875,6.948V2.553A2.554,2.554,0,0,1,36.428,0" transform="translate(0.001)" fill="#77c159" fill-rule="evenodd"/></g></svg>