<svg xmlns="http://www.w3.org/2000/svg" xmlns:xlink="http://www.w3.org/1999/xlink" width="22" height="22" viewBox="0 0 22 22"><defs><clipPath id="a"><rect width="22" height="22" fill=""/></clipPath></defs><g clip-path="url(#a)"><g clip-path="url(#a)"><g opacity="0"><g clip-path="url(#a)"><rect width="21.773" height="21.773" transform="translate(0.113 0.113)" fill="" stroke="#000" stroke-linecap="round" stroke-linejoin="round" stroke-width="0.25"/></g></g><path d="M18.562.244H4.337A1.972,1.972,0,0,0,2.368,2.213V18.379a1.971,1.971,0,0,0,1.969,1.969H9.018a.907.907,0,0,0,0-1.814H4.337a.162.162,0,0,1-.154-.154V2.213a.157.157,0,0,1,.154-.154H18.562a.149.149,0,0,1,.154.154V18.379a.155.155,0,0,1-.119.148.907.907,0,1,0,.292,1.791,1.978,1.978,0,0,0,1.641-1.939V2.213A1.972,1.972,0,0,0,18.562.244" transform="translate(-0.22 -0.023)" fill=""/><path d="M7.564,5.567H15.98a.907.907,0,0,0,0-1.814H7.564a.907.907,0,1,0,0,1.814" transform="translate(-0.618 -0.348)" fill=""/><path d="M16.887,8.961a.907.907,0,0,0-.907-.907H7.564a.907.907,0,0,0,0,1.814H15.98a.907.907,0,0,0,.907-.907" transform="translate(-0.618 -0.747)" fill=""/><path d="M9.185,12.356H7.564a.907.907,0,1,0,0,1.814H9.185a.907.907,0,1,0,0-1.814" transform="translate(-0.618 -1.146)" fill=""/><path d="M9.185,16.657H7.564a.907.907,0,1,0,0,1.814H9.185a.907.907,0,1,0,0-1.814" transform="translate(-0.618 -1.545)" fill=""/><path d="M18.724,15.012a3.8,3.8,0,1,0-6.711,2.421.9.9,0,0,0-.052.258v4.092a.907.907,0,0,0,1.47.711l1.443-.8,1.564.822a.907.907,0,0,0,1.447-.729v-4.1a.855.855,0,0,0-.052-.255,3.768,3.768,0,0,0,.89-2.415m-3.8-1.988a1.988,1.988,0,1,1-1.989,1.988,1.99,1.99,0,0,1,1.989-1.988m.474,6.8a.905.905,0,0,0-1.1.018l-.517.408V18.619a3.444,3.444,0,0,0,2.3,0v1.7Z" transform="translate(-1.032 -1.04)" fill=""/></g></g></svg>