<svg xmlns="http://www.w3.org/2000/svg" xmlns:xlink="http://www.w3.org/1999/xlink" width="24.25" height="24.25" viewBox="0 0 24.25 24.25"><defs><clipPath id="a"><rect width="24.25" height="24.25" fill=""/></clipPath></defs><g clip-path="url(#a)"><g clip-path="url(#a)"><path d="M9.56,18.1A8.916,8.916,0,0,1,5.079,1.478,1.165,1.165,0,0,1,6.243,3.5,6.586,6.586,0,0,0,2.977,9.187,6.59,6.59,0,0,0,9.56,15.769,6.586,6.586,0,0,0,14.217,4.53,6.5,6.5,0,0,0,12.876,3.5a1.165,1.165,0,0,1,1.165-2.017,8.917,8.917,0,0,1,1.823,14.007A8.834,8.834,0,0,1,9.56,18.1" transform="translate(2.565 2.415)" fill=""/><g opacity="0"><g clip-path="url(#a)"><path d="M24.25,24.25H0V0H24.25ZM.25,24H24V.25H.25Z" fill=""/></g></g></g></g></svg>