<svg xmlns="http://www.w3.org/2000/svg" xmlns:xlink="http://www.w3.org/1999/xlink" width="32" height="32" viewBox="0 0 32 32"><defs><clipPath id="a"><rect width="8" height="14" transform="translate(-0.422 0.156)" fill="#294882"/></clipPath></defs><g transform="translate(-55 -6771)"><circle cx="16" cy="16" r="16" transform="translate(55 6771)" fill="none"/><g transform="translate(67.245 6779.815)"><g transform="translate(0.177 0.028)" clip-path="url(#a)"><path d="M6.823,7.668,7.2,5.2H4.834V3.6A1.233,1.233,0,0,1,6.225,2.267H7.3V.167A13.124,13.124,0,0,0,5.391,0,3.012,3.012,0,0,0,2.167,3.32V5.2H0V7.668H2.167v5.964a8.626,8.626,0,0,0,2.667,0V7.668Z" transform="translate(-0.237 0.108)" fill="#294882"/></g></g></g></svg>