<svg xmlns="http://www.w3.org/2000/svg" xmlns:xlink="http://www.w3.org/1999/xlink" width="23.741" height="18" viewBox="0 0 23.741 18"><defs><clipPath id="a"><rect width="23.741" height="18" fill="#09f"/></clipPath></defs><g clip-path="url(#a)"><path d="M3,9,2.934,9a1,1,0,0,0-.895,1.266l1.389,5A1,1,0,0,0,4.391,16H19.35a1,1,0,0,0,.963-.732l1.389-5A1,1,0,0,0,20.806,9L20.74,9ZM21.87,7.22A3,3,0,0,1,23.629,10.8l-1.389,5A3,3,0,0,1,19.35,18H4.391A3,3,0,0,1,1.5,15.8l-1.389-5A3,3,0,0,1,1.871,7.22V3a3,3,0,0,1,3-3H9.042a3,3,0,0,1,2.121.879L13.284,3H18.87a3,3,0,0,1,3,3ZM4.871,2a1,1,0,0,0-1,1V7h16V6a1,1,0,0,0-1-1h-6a1,1,0,0,1-.707-.293L9.75,2.293A1,1,0,0,0,9.042,2Z" fill="#09f" fill-rule="evenodd"/></g></svg>