<svg xmlns="http://www.w3.org/2000/svg" xmlns:xlink="http://www.w3.org/1999/xlink" width="8.304" height="11" viewBox="0 0 8.304 11"><defs><clipPath id="a"><rect width="8.304" height="11" fill="#fff"/></clipPath></defs><g transform="translate(0 0)"><g transform="translate(0 0)" clip-path="url(#a)"><path d="M7.609,4.054,2.946.392A1.821,1.821,0,0,0,0,1.824V9.176a1.819,1.819,0,0,0,2.946,1.433L7.609,6.946a1.851,1.851,0,0,0,0-2.892M6.771,5.121l-.261.426L1.778,9.176,1.8,1.786a.044.044,0,0,1,.02-.006.042.042,0,0,1,.025.01L6.509,5.454Z" transform="translate(0 0)" fill="#fff"/></g></g></svg>