<svg xmlns="http://www.w3.org/2000/svg" xmlns:xlink="http://www.w3.org/1999/xlink" width="22" height="22" viewBox="0 0 22 22"><defs><clipPath id="a"><rect width="22" height="22" fill=""/></clipPath></defs><g clip-path="url(#a)"><path d="M16.707,5.293a1,1,0,0,1,0,1.414l-1,1a1,1,0,0,1-1.414-1.414l1-1a1,1,0,0,1,1.414,0M7,7.5A7.5,7.5,0,1,1,14.5,15a7.586,7.586,0,0,1-1.017-.068L12,16.414A2,2,0,0,1,10.586,17H8v1.172a3,3,0,0,1-.879,2.121L6,21.414A2,2,0,0,1,4.586,22H2a2,2,0,0,1-2-2V17.414A2,2,0,0,1,.586,16L7.231,9.355A7.524,7.524,0,0,1,7,7.5M14.5,2A5.5,5.5,0,0,0,9.305,9.311l.206.592L2,17.414V20H4.586l1.121-1.121A1,1,0,0,0,6,18.172V17a2,2,0,0,1,2-2h2.586l2.233-2.233.531.113A5.573,5.573,0,0,0,14.5,13a5.5,5.5,0,0,0,0-11" fill="" fill-rule="evenodd"/></g></svg>