<svg xmlns="http://www.w3.org/2000/svg" xmlns:xlink="http://www.w3.org/1999/xlink" width="52.766" height="80" viewBox="0 0 52.766 80"><defs><clipPath id="a"><rect width="52.766" height="80" fill="#77c159"/></clipPath></defs><g clip-path="url(#a)"><path d="M26.383,47.66a2.554,2.554,0,0,1,2.553,2.553v6.809a2.553,2.553,0,1,1-5.106,0V50.213a2.554,2.554,0,0,1,2.553-2.553m0-15.319A21.272,21.272,0,1,0,38.54,36.153,21.165,21.165,0,0,0,26.383,32.34M15.319,29.661a26.429,26.429,0,0,1,22.128,0V16.17a11.064,11.064,0,1,0-22.128,0ZM10.213,16.17a16.17,16.17,0,1,1,32.34,0v16.6a26.383,26.383,0,1,1-32.34,0Z" fill="#77c159" fill-rule="evenodd"/></g></svg>