<svg xmlns="http://www.w3.org/2000/svg" xmlns:xlink="http://www.w3.org/1999/xlink" width="24" height="16" viewBox="0 0 24 16"><defs><clipPath id="a"><rect width="24" height="16" fill=""/></clipPath></defs><g clip-path="url(#a)"><path d="M22,3.685,13.437,8.356a3,3,0,0,1-2.874,0L2,3.685V13a1,1,0,0,0,1,1H21a1,1,0,0,0,1-1ZM3.088,2l8.433,4.6a1,1,0,0,0,.958,0L20.912,2ZM.311,1.669A3,3,0,0,1,3,0H21a3,3,0,0,1,3,3V13a3,3,0,0,1-3,3H3a3,3,0,0,1-3-3V3A3,3,0,0,1,.311,1.669" fill="" fill-rule="evenodd"/></g></svg>