<svg xmlns="http://www.w3.org/2000/svg" xmlns:xlink="http://www.w3.org/1999/xlink" width="21.911" height="21.911" viewBox="0 0 21.911 21.911"><defs><clipPath id="a"><rect width="21.911" height="21.911" transform="translate(0 0)" fill="#09f"/></clipPath></defs><g clip-path="url(#a)"><path d="M.014,3.1A2.855,2.855,0,0,1,2.911,0H6.469A3,3,0,0,1,9.316,2.051l1.153,3.46a3,3,0,0,1-.725,3.07l-.557.557a11.86,11.86,0,0,0,3.6,3.576l.547-.547a3,3,0,0,1,3.07-.725L19.86,12.6a3,3,0,0,1,2.051,2.846V19a2.855,2.855,0,0,1-3.1,2.9A21.008,21.008,0,0,1,.014,3.1M2.911,2a.856.856,0,0,0-.906.9A19.006,19.006,0,0,0,19.012,19.906a.856.856,0,0,0,.9-.906V15.442a1,1,0,0,0-.684-.949l-3.46-1.153a1,1,0,0,0-1.023.241l-.554.554a1.98,1.98,0,0,1-2.518.242,13.853,13.853,0,0,1-4.167-4.156,1.974,1.974,0,0,1,.259-2.488l.566-.566a1,1,0,0,0,.241-1.023L7.418,2.684A1,1,0,0,0,6.469,2Z" fill="#09f" fill-rule="evenodd"/></g></svg>