<svg xmlns="http://www.w3.org/2000/svg" xmlns:xlink="http://www.w3.org/1999/xlink" width="53" height="40" viewBox="0 0 53 40"><defs><clipPath id="a"><rect width="53" height="40" transform="translate(0 0)" fill="#fe617b"/></clipPath></defs><g transform="translate(0 0)" clip-path="url(#a)"><path d="M33.333,17.778V33.333a2.223,2.223,0,0,0,2.222,2.222H46.667a2.222,2.222,0,0,0,2.222-2.222V20a2.222,2.222,0,0,0-2.222-2.222Zm7.9-17.4a2.22,2.22,0,0,1,.616,3.082l-6.584,9.878h11.4A6.666,6.666,0,0,1,53.333,20V33.333A6.666,6.666,0,0,1,46.667,40H35.555a6.666,6.666,0,0,1-6.667-6.667V16.9a6.661,6.661,0,0,1,.313-2.02,6.761,6.761,0,0,1,.807-1.68L38.151.989A2.225,2.225,0,0,1,41.233.373M4.444,17.778V33.333a2.223,2.223,0,0,0,2.222,2.222H17.778A2.222,2.222,0,0,0,20,33.333V20a2.222,2.222,0,0,0-2.222-2.222Zm7.9-17.4a2.22,2.22,0,0,1,.616,3.082L6.376,13.333h11.4A6.666,6.666,0,0,1,24.444,20V33.333A6.666,6.666,0,0,1,17.778,40H6.667A6.666,6.666,0,0,1,0,33.333V16.9a6.661,6.661,0,0,1,.313-2.02A6.761,6.761,0,0,1,1.12,13.2L9.262.989A2.224,2.224,0,0,1,12.344.373" transform="translate(0 0)" fill="#fe617b" fill-rule="evenodd"/></g></svg>