<svg xmlns="http://www.w3.org/2000/svg" xmlns:xlink="http://www.w3.org/1999/xlink" width="48" height="48" viewBox="0 0 48 48"><defs><clipPath id="a"><rect width="48" height="48" fill="none"/></clipPath><clipPath id="c"><rect width="33.952" height="21.892" fill="none"/></clipPath></defs><g clip-path="url(#a)"><g clip-path="url(#a)"><path d="M27.214,4.928A22.286,22.286,0,1,1,4.928,27.214,22.286,22.286,0,0,1,27.214,4.928" transform="translate(-3.214 -3.214)" fill="#fff"/><path d="M24,48A24,24,0,1,1,48,24,24,24,0,0,1,24,48M24,3.429A20.571,20.571,0,1,0,44.571,24,20.571,20.571,0,0,0,24,3.429" fill="#ffb400"/><path d="M86.777,34.347a8.156,8.156,0,0,0-3.88.041.583.583,0,0,1-.35.026.322.322,0,0,1-.131-.308,1.256,1.256,0,0,1,.218-.507,2.124,2.124,0,0,1,.623-.512,7.705,7.705,0,0,1,1.867-.578A4.92,4.92,0,0,1,90.6,35.73a.9.9,0,0,1-.042.815c-.183.372-.291.2-.4.106-.567-.474-1.11-1.014-1.7-1.421a14.366,14.366,0,0,0-1.681-.882" transform="translate(-53.747 -21.155)" fill="#ffb400"/><path d="M83.584,44.96A3.286,3.286,0,1,1,80.3,48.246a3.286,3.286,0,0,1,3.286-3.286" transform="translate(-52.368 -29.322)" fill="#ffb400"/><path d="M35.731,34.348a8.155,8.155,0,0,1,3.88.041.584.584,0,0,0,.351.026.323.323,0,0,0,.13-.308,1.252,1.252,0,0,0-.218-.507,2.124,2.124,0,0,0-.623-.512,7.705,7.705,0,0,0-1.867-.578A4.922,4.922,0,0,0,31.91,35.73a.9.9,0,0,0,.042.815c.183.372.291.2.4.106.567-.474,1.11-1.014,1.7-1.421a14.317,14.317,0,0,1,1.681-.882" transform="translate(-20.76 -21.156)" fill="#ffb400"/><path d="M42.095,44.96a3.286,3.286,0,1,1-3.286,3.286,3.286,3.286,0,0,1,3.286-3.286" transform="translate(-25.31 -29.322)" fill="#ffb400"/><g transform="translate(10.541 22.68)" opacity="0.2" style="isolation:isolate"><g clip-path="url(#c)"><path d="M41.113,84.526A25.366,25.366,0,0,1,30.3,82.144,20.565,20.565,0,0,0,64.256,66.526c0-.444-.019-.883-.047-1.32-.728,10.778-10.787,19.32-23.1,19.32" transform="translate(-30.304 -65.206)" fill="#ffb400"/></g></g><path d="M52.162,84.543c2.6-4.443,9.92-4.448,12.583,0l-.084.265a26.78,26.78,0,0,0-3.083-.6,24.03,24.03,0,0,0-7.8.237,15.1,15.1,0,0,0-1.522.36Z" transform="translate(-34.019 -52.962)" fill="#ffb400"/></g></g></svg>