<svg xmlns="http://www.w3.org/2000/svg" xmlns:xlink="http://www.w3.org/1999/xlink" width="60" height="80" viewBox="0 0 60 80"><defs><clipPath id="a"><rect width="60" height="80" fill="#77c159"/></clipPath></defs><g transform="translate(0 0)"><g transform="translate(0 0)" clip-path="url(#a)"><path d="M41.838,25.3a1.78,1.78,0,0,1,0,2.507L31.249,38.426a1.766,1.766,0,0,1-2.5,0l-7.059-7.081a1.77,1.77,0,1,1,2.5-2.507L30,34.67,39.339,25.3a1.766,1.766,0,0,1,2.5,0M0,8.851A8.836,8.836,0,0,1,8.824,0H51.176A8.836,8.836,0,0,1,60,8.851V71.135a8.821,8.821,0,0,1-14.633,6.659L33.487,67.368a5.283,5.283,0,0,0-6.974,0L14.633,77.794A8.821,8.821,0,0,1,0,71.135ZM8.824,3.54a5.3,5.3,0,0,0-5.294,5.31V71.135a5.292,5.292,0,0,0,8.781,3.993L24.191,64.7a8.8,8.8,0,0,1,11.619,0l11.88,10.426a5.292,5.292,0,0,0,8.781-3.993V8.851a5.3,5.3,0,0,0-5.294-5.31Z" transform="translate(0 -0.001)" fill="#77c159" fill-rule="evenodd"/></g></g></svg>