<svg xmlns="http://www.w3.org/2000/svg" width="48" height="48" viewBox="0 0 48 48"><g transform="translate(-16657.557 17897)"><circle cx="22.286" cy="22.286" r="22.286" transform="translate(16659.271 -17895.285)" fill="#fff"/><path d="M422.008,198a24,24,0,1,1,24-24A24.027,24.027,0,0,1,422.008,198Zm0-44.571A20.571,20.571,0,1,0,442.579,174,20.595,20.595,0,0,0,422.008,153.429Z" transform="translate(16259.549 -18047)" fill="#77c159"/><g transform="translate(16665.82 -17878.588)"><path d="M441.759,238.022a25.3,25.3,0,0,1-11.589-2.814,11.818,11.818,0,0,1-1.734-1.243c-.148-.12-.163-.405-.239-.615.226-.077.477-.257.675-.211a10.814,10.814,0,0,1,1.633.539,29.428,29.428,0,0,0,11.9,2.271,30.2,30.2,0,0,0,10.8-2.387,8.134,8.134,0,0,1,1.415-.437.444.444,0,0,1,.412.776,6.311,6.311,0,0,1-1.054.864,19.8,19.8,0,0,1-7.669,2.768C444.8,237.776,443.277,237.864,441.759,238.022Z" transform="translate(-425.96 -222.62)" fill="#77c159"/><path d="M426.072,202.949a4.288,4.288,0,0,1,4.186,2.928,2.643,2.643,0,0,1,.1,1.168.93.93,0,0,1-.53.655c-.215.045-.555-.2-.74-.4a4.833,4.833,0,0,1-.435-.84,2.938,2.938,0,0,0-5.169.008,6.745,6.745,0,0,1-.469.891c-.149.185-.461.4-.641.358a.877.877,0,0,1-.568-.558,2.923,2.923,0,0,1,.08-1.284A4.283,4.283,0,0,1,426.072,202.949Z" transform="translate(-421.764 -202.945)" fill="#77c159"/><path d="M491.914,202.937a4.29,4.29,0,0,1,4.073,2.666,3.466,3.466,0,0,1,.188,1.447.875.875,0,0,1-.537.641c-.218.04-.548-.209-.736-.415a4.31,4.31,0,0,1-.4-.791,2.942,2.942,0,0,0-5.2-.018,6.422,6.422,0,0,1-.473.889c-.15.183-.467.394-.646.347a.855.855,0,0,1-.557-.566,3.8,3.8,0,0,1,.171-1.509A4.3,4.3,0,0,1,491.914,202.937Z" transform="translate(-464.71 -202.937)" fill="#77c159"/></g><path d="M438.971,234.526a25.365,25.365,0,0,1-10.809-2.382,20.565,20.565,0,0,0,33.952-15.618c0-.444-.019-.883-.047-1.32C461.339,225.984,451.279,234.526,438.971,234.526Z" transform="translate(16239.883 -18089.525)" fill="#77c159" opacity="0.2"/><path d="M451.512,248.764a29.128,29.128,0,0,0,7.354-1.45,1.992,1.992,0,0,1,.65-.152.537.537,0,0,1,.437.24.687.687,0,0,1-.106.553,2.882,2.882,0,0,1-.872.705,20.677,20.677,0,0,1-3.2,1.22,19.841,19.841,0,0,1-10.551-.151,9.967,9.967,0,0,1-1.823-.866.645.645,0,0,1-.417-.777c.12-.413.433-.288.69-.243,1.367.237,2.729.544,4.1.709C449.016,248.7,450.267,248.7,451.512,248.764Z" transform="translate(16230.234 -18110.367)" fill="#77c159" opacity="0.2"/></g></svg>