<svg xmlns="http://www.w3.org/2000/svg" xmlns:xlink="http://www.w3.org/1999/xlink" width="16" height="15.986" viewBox="0 0 16 15.986"><defs><clipPath id="a"><rect width="16" height="15.986" fill=""/></clipPath></defs><g transform="translate(0 0)"><g transform="translate(0 0)" clip-path="url(#a)"><path d="M8.73.489l1.835,3.989a.843.843,0,0,0,.558.479l4.148.638a.722.722,0,0,1,.479,1.276L12.719,9.982a1.114,1.114,0,0,0-.239.718l.718,4.308a.8.8,0,0,1-1.117.877L8.331,13.811a.6.6,0,0,0-.718,0L3.864,15.885a.77.77,0,0,1-1.117-.877L3.465,10.7a.8.8,0,0,0-.239-.718L.195,6.871A.829.829,0,0,1,.673,5.515l4.148-.638A.684.684,0,0,0,5.38,4.4L7.215.409A.865.865,0,0,1,8.73.489" transform="translate(0 0)" fill=""/></g></g></svg>