<svg xmlns="http://www.w3.org/2000/svg" xmlns:xlink="http://www.w3.org/1999/xlink" width="32" height="32" viewBox="0 0 32 32"><defs><clipPath id="a"><rect width="14.505" height="12.165" fill="#294882"/></clipPath></defs><g transform="translate(-99 -6771)"><circle cx="16" cy="16" r="16" transform="translate(99 6771)" fill="none"/><g transform="translate(107.747 6780.917)"><g clip-path="url(#a)"><path d="M14.464,1.107,12.275,11.43c-.165.729-.6.91-1.208.567L7.732,9.539,6.122,11.087a.838.838,0,0,1-.67.327l.24-3.4,6.182-5.586c.269-.24-.058-.372-.418-.133L3.814,7.111.524,6.081C-.192,5.857-.2,5.365.673,5.022L13.541.064c.6-.223,1.117.133.923,1.043" transform="translate(0 0)" fill="#294882"/></g></g></g></svg>