<svg xmlns="http://www.w3.org/2000/svg" xmlns:xlink="http://www.w3.org/1999/xlink" width="80" height="80" viewBox="0 0 80 80"><defs><clipPath id="a"><rect width="80" height="80" fill="#77c159"/></clipPath></defs><g clip-path="url(#a)"><path d="M23.769,33.191A16.232,16.232,0,1,1,40,49.362a16.2,16.2,0,0,1-16.231-16.17M40,22.128A11.064,11.064,0,1,0,51.125,33.191,11.094,11.094,0,0,0,40,22.128M0,40A40,40,0,1,1,14.652,70.945,40,40,0,0,1,0,40M60.94,67.915a11.068,11.068,0,0,0-10.727-8.34H29.787a11.068,11.068,0,0,0-10.727,8.34,34.9,34.9,0,0,0,41.879,0M40,5.106A34.892,34.892,0,0,0,14.924,64.262a16.167,16.167,0,0,1,14.863-9.794H50.213a16.17,16.17,0,0,1,14.863,9.794A34.892,34.892,0,0,0,40,5.106" fill="#77c159" fill-rule="evenodd"/></g></svg>