<svg xmlns="http://www.w3.org/2000/svg" xmlns:xlink="http://www.w3.org/1999/xlink" width="22" height="26" viewBox="0 0 22 26"><defs><clipPath id="a"><rect width="22" height="26" fill=""/></clipPath></defs><g clip-path="url(#a)"><path d="M18.74,13.18a1,1,0,0,0-1.41,1.42A9,9,0,0,1,20,21c0,1.22-3.51,3-9,3s-9-1.78-9-3a9,9,0,0,1,2.63-6.37,1,1,0,1,0-1.41-1.41A10.92,10.92,0,0,0,0,21c0,3.25,5.67,5,11,5s11-1.75,11-5a10.938,10.938,0,0,0-3.26-7.82" fill=""/><path d="M11,14A7,7,0,1,0,4,7a7,7,0,0,0,7,7M11,2A5,5,0,1,1,6,7a5,5,0,0,1,5-5" fill=""/></g></svg>