<svg xmlns="http://www.w3.org/2000/svg" xmlns:xlink="http://www.w3.org/1999/xlink" width="95.55" height="66.967" viewBox="0 0 95.55 66.967"><defs><clipPath id="a"><rect width="95.55" height="66.967" fill="#77c159"/></clipPath></defs><g clip-path="url(#a)"><path d="M74.929,66.951c-9.058,0-18.117.043-27.175-.017a9.784,9.784,0,0,1-10-10.267c.069-1.609.48-3.084,2.387-3.007,1.757.071,2.1,1.4,2.059,3.007a5.374,5.374,0,0,0,5.66,5.865q27.07.071,54.14,0a6.863,6.863,0,0,0,7.115-6.544c.89-9.149,1.614-18.315,2.407-27.474.5-5.759.95-11.522,1.51-17.276.4-4.082-1.861-6.7-6-6.707q-26.652-.014-53.3,0c-4.178,0-6.8,2.182-7.548,6.29-.279,1.532-.829,2.79-2.645,2.516-1.973-.3-2.021-1.838-1.8-3.382A11.519,11.519,0,0,1,53.011.067q27.278-.136,54.558,0a9.69,9.69,0,0,1,9.9,10.765q-1.866,22.908-3.891,45.8A11.4,11.4,0,0,1,102.1,66.938c-9.058.054-18.116.014-27.174.013" transform="translate(-21.958 0)" fill="#77c159"/><path d="M95.316,50.58a10.135,10.135,0,0,1-7.575-3.448Q78.6,36.527,69.479,25.912c-.862-1-1.585-2.013-.687-3.346.931-1.382,2.6-1.245,4,.376q7.585,8.77,15.136,17.57,1.295,1.5,2.585,3.012c2.827,3.322,6.424,3.52,9.611.445q10.6-10.228,21.15-20.508c2.043-1.983,3.281-2.327,4.407-1.217,1.194,1.177.873,2.322-1.22,4.352Q113.89,36.85,103.324,47.113a11.423,11.423,0,0,1-8.008,3.466" transform="translate(-39.78 -12.576)" fill="#77c159"/><path d="M21.8,74.816c2.787,0,5.574.015,8.361-.006,1.574-.012,2.649.682,2.645,2.278,0,1.494-1.082,2.2-2.525,2.209q-8.569.03-17.14,0c-1.437,0-2.528-.691-2.54-2.193-.013-1.6,1.053-2.3,2.628-2.293,2.857.018,5.713.005,8.57,0" transform="translate(-6.165 -43.52)" fill="#77c159"/><path d="M39.8,42.823c1.671,0,3.342.01,5.012,0,1.541-.013,2.667.61,2.674,2.239C47.5,46.715,46.3,47.3,44.8,47.308c-3.411.019-6.823.033-10.233-.007-1.5-.018-2.62-.661-2.548-2.359.067-1.563,1.123-2.116,2.559-2.118q2.611,0,5.221,0" transform="translate(-18.628 -24.91)" fill="#77c159"/><path d="M29.128,106.819c1.741,0,3.482-.018,5.222.008a2.229,2.229,0,1,1,.06,4.45c-3.619.067-7.241.06-10.86,0a2.106,2.106,0,0,1-2.3-2.195,2.165,2.165,0,0,1,2.449-2.256c1.81-.023,3.62-.005,5.431,0" transform="translate(-12.361 -62.137)" fill="#77c159"/><path d="M4.448,42.824c.7,0,1.394-.035,2.087.009,1.379.088,2.436.889,2.189,2.205A3.285,3.285,0,0,1,6.7,47.175a15,15,0,0,1-4.563.082A2.059,2.059,0,0,1,0,44.936a2.118,2.118,0,0,1,2.356-2.109c.695-.025,1.391,0,2.087,0" transform="translate(0 -24.905)" fill="#77c159"/></g></svg>